<?xml version="1.0" standalone="no"?>
<!DOCTYPE svg PUBLIC "-//W3C//DTD SVG 20010904//EN"
 "http://www.w3.org/TR/2001/REC-SVG-20010904/DTD/svg10.dtd">
<svg version="1.0" xmlns="http://www.w3.org/2000/svg"
 width="1024.000000pt" height="1024.000000pt" viewBox="0 0 1024.000000 1024.000000"
 preserveAspectRatio="xMidYMid meet">
<metadata>
Created by potrace 1.14, written by Peter Selinger 2001-2017
</metadata>
<g transform="translate(0.000000,1024.000000) scale(0.100000,-0.100000)"
fill="#000000" stroke="none">
<path d="M725 10234 c-123 -15 -301 -81 -376 -141 -30 -23 -179 -172 -202
-202 -38 -48 -106 -199 -123 -276 -18 -77 -19 -224 -19 -4495 0 -4271 1 -4418
19 -4495 17 -77 85 -228 123 -276 23 -30 172 -179 202 -202 48 -38 199 -106
276 -123 77 -18 224 -19 4495 -19 4271 0 4418 1 4495 19 77 17 228 85 276 123
30 23 179 172 202 202 38 48 106 199 123 276 18 77 19 224 19 4495 0 4271 -1
4418 -19 4495 -17 77 -85 228 -123 276 -23 30 -172 179 -201 202 -43 34 -181
99 -253 120 l-74 21 -4405 2 c-2423 0 -4418 -1 -4435 -2z m6800 -6410 c-48
-39 -67 -50 -130 -75 -72 -28 -162 -29 -2275 -29 -2148 0 -2205 1 -2280 32
-86 36 -87 37 -157 106 -56 56 -72 81 -100 159 -17 45 -18 172 -18 2268 0
2101 1 2223 18 2269 23 63 36 86 72 129 l30 35 2435 -2435 2435 -2435 -30 -24z
m-3250 -159 c28 -16 58 -38 68 -49 10 -12 26 -30 35 -41 69 -80 85 -237 34
-337 -33 -64 -87 -120 -146 -151 -34 -18 -58 -22 -141 -22 -118 0 -156 14
-226 84 -80 81 -93 111 -93 226 -1 110 7 134 70 211 35 44 108 92 159 105 16
5 66 7 110 5 65 -3 89 -9 130 -31z m3347 -574 c154 -79 219 -266 146 -421 -98
-210 -371 -255 -529 -87 -21 23 -39 45 -39 49 0 5 -1021 8 -2269 8 l-2268 0
-33 23 c-67 45 -88 132 -51 213 14 31 30 46 65 62 l46 22 2248 0 2248 0 38 45
c73 88 137 115 261 112 72 -2 99 -7 137 -26z m-2371 -593 c51 -30 109 -90 135
-140 12 -23 19 -64 22 -131 4 -89 2 -101 -22 -150 -83 -166 -268 -232 -430
-153 -73 36 -116 79 -152 152 -79 161 -14 344 151 430 46 23 58 25 150 22 87
-3 106 -7 146 -30z m-1522 -569 c63 -34 120 -95 148 -157 29 -66 32 -193 5
-259 -28 -67 -85 -128 -153 -162 -55 -27 -72 -31 -146 -31 -105 0 -158 22
-229 96 l-51 53 -324 3 c-317 3 -325 3 -355 25 -86 62 -83 210 6 271 32 22 38
22 350 22 l317 0 26 39 c33 50 120 109 182 125 11 3 56 3 100 2 60 -3 91 -10
124 -27z"/>
</g>
</svg>
